<svg width="128" height="128" viewBox="0 0 128 128" fill="none" xmlns="http://www.w3.org/2000/svg">
<path d="M64 122C96.0325 122 122 96.0325 122 64C122 31.9675 96.0325 6 64 6C31.9675 6 6 31.9675 6 64C6 96.0325 31.9675 122 64 122Z" fill="white"/>
<path d="M86.5768 80.7695L89.1461 64H73.0617V53.1194C73.0617 48.5355 75.3047 44.0577 82.515 44.0577H89.8312V29.784C89.8312 29.784 83.1919 28.6503 76.8463 28.6503C63.6003 28.6503 54.9382 36.6761 54.9382 51.219V64H40.2078V80.7695H54.9382V121.299C57.8909 121.763 60.9169 122 64 122C67.0831 122 70.1091 121.755 73.0617 121.299V80.7695H86.5768Z" fill="#1977F3"/>
</svg>
