<svg width="128" height="128" viewBox="0 0 128 128" fill="none" xmlns="http://www.w3.org/2000/svg">
<path d="M121.383 31.7748C117.262 33.6023 112.834 34.8375 108.185 35.393C112.93 32.549 116.573 28.0459 118.289 22.6805C113.849 25.3134 108.931 27.2258 103.697 28.2565C99.5057 23.7907 93.534 21 86.9251 21C74.2348 21 63.9463 31.2881 63.9463 43.9776C63.9463 45.7786 64.1499 47.5324 64.5415 49.2141C45.4443 48.2558 28.513 39.1079 17.1799 25.2061C15.202 28.5998 14.0688 32.547 14.0688 36.758C14.0688 44.7298 18.1258 51.763 24.2913 55.8835C20.5244 55.7643 16.9816 54.7307 13.8832 53.0097C13.8816 53.1055 13.8816 53.2018 13.8816 53.2985C13.8816 64.4317 21.8022 73.7189 32.3139 75.8296C30.3856 76.3548 28.3557 76.6354 26.2598 76.6354C24.7793 76.6354 23.3397 76.4916 21.937 76.2233C24.8608 85.3524 33.3467 91.9956 43.4017 92.1812C35.5376 98.3439 25.6297 102.017 14.8644 102.017C13.0098 102.017 11.1806 101.909 9.383 101.697C19.5519 108.216 31.6302 112.02 44.6065 112.02C86.8715 112.02 109.983 77.0066 109.983 46.6421C109.983 45.6458 109.961 44.6548 109.917 43.6696C114.406 40.4299 118.302 36.3827 121.383 31.7748Z" fill="#55ACEE"/>
</svg>
